<?xml version="1.0" encoding="utf-8"?>
<?xml-stylesheet type="text/xsl" href="rss1.xsl"?>
<rss version="2.0" xmlns:atom="http://www.w3.org/2005/Atom" xmlns:content="http://purl.org/rss/1.0/modules/content/" xmlns:dc="http://purl.org/dc/elements/1.1/" xmlns:media="http://search.yahoo.com/mrss/">
<channel>
 <title>Getty</title>
 <link>http://www.gettyimg.com/</link>
 <atom:link href="http://www.gettyimg.com/" rel="self" type="application/rss+xml" />

 
                <item>
                <title><![CDATA[【Singles (lossless)】ALAC - Karla Grunewaldt - Kari (Versión alternativa) | 24bit/44.1kHz | Apple Alac |]]></title>
                <link><![CDATA[https://sharemania.us/threads/karla-grunewaldt-kari-versi%C3%B3n-alternativa-24bit-44-1khz-apple-alac.243050/]]></link>
                <description><![CDATA[<article>
<blockquote class="messageText SelectQuoteContainer ugc baseHtml">
<div style="text-align: center"><img src="https://a5.mzstatic.com/us/r1000/0/Music211/v4/2b/7c/5b/2b7c5b3b-50c2-962b-077f-f245d9aff02d/8447053110782.jpg" class="bbCodeImage LbImage" alt="[​IMG]" data-url="https://a5.mzstatic.com/us/r1000/0/Music211/v4/2b/7c/5b/2b7c5b3b-50c2-962b-077f-f245d9aff02d/8447053110782.jpg" style=""><br>
​</div>
<div class="ToggleTriggerAnchor bbCodeSpoilerContainer">
<button type="button" class="button bbCodeSpoilerButton ToggleTrigger Tooltip JsOnly" data-target="> .SpoilerTarget"><span>Spoiler: <span class="SpoilerTitle">ALAC</span></span></button>
<div class="SpoilerTarget bbCodeSpoilerText">
<div class="bbCodeBlock bbCodeCode">
<div class="type">Code:</div>
<pre>General
Complete name                            : 01. Kari (Versión alternativa).m4a
Format                                   : MPEG-4
Format profile                           : Apple audio with iTunes info
Codec ID                                 : M4A  (M4A /mp42/isom)
File size                                : 33.3 MiB
Duration                                 : 3 min 0 s
Overall bit rate mode                    : Variable
Overall bit rate                         : 1 551 kb/s
Album                                    : Kari (Versión alternativa) - Single
Album/Performer                          : Karla Grunewaldt
Track name                               : Kari (Versión alternativa)
Track name/Position                      : 1
Track name/Total                         : 1
Performer                                : Karla Grunewaldt
Composer                                 : Karla Grunewaldt, Daniel Grunewaldt &amp; Loreto Bisbal
Genre                                    : Indie Pop
Recorded date                            : 2024
Encoded date                             : 2024-04-12 18:22:19 UTC
Tagged date                              : 2024-04-12 18:22:19 UTC
ISRC                                     : ES71G2408420
Copyright                                : ℗ 2024 Karla Grunewaldt
LABEL                                    : Karla Grunewaldt
UPC                                      : 8447053110782

Audio
ID                                       : 1
Format                                   : ALAC
Codec ID                                 : alac
Codec ID/Info                            : Apple Lossless Audio Codec
Duration                                 : 3 min 0 s
Duration_LastFrame                       : -24 ms
Bit rate mode                            : Variable
Bit rate                                 : 1 550 kb/s
Nominal bit rate                         : 2 117 kb/s
Channel(s)                               : 2 channels
Sampling rate                            : 44.1 kHz
Bit depth                                : 24 bits
Stream size                              : 33.3 MiB (100%)
Title                                    : Core Media Audio
Encoded date                             : 2024-04-12 18:22:19 UTC
Tagged date                              : 2024-04-12 18:22:19 UTC

</pre>
</div><div style="text-align: center">​</div></div>
</div><div style="text-align: center"><b>1- Kari (Versión alternativa) </b><br>
<br>
<img src="https://bendodson.s3-eu-west-1.amazonaws.com/apple-music/lossless.png" class="bbCodeImage LbImage" alt="[​IMG]" data-url="https://bendodson.s3-eu-west-1.amazonaws.com/apple-music/lossless.png" style=""><br>
<br>
Released 19 April 2024<br>
℗ 2024 Karla Grunewaldt<br>
<br>
<div class="bbCodeBlock bbCodeVfcHH HiddenContent">
<div class="attribution type">Hidden Content:</div>
<blockquote>You must reply before you can see the hidden data contained here.</blockquote>
</div></div>
<div class="messageTextEndMarker">&nbsp;</div>
</blockquote>
</article>]]></description>
                <author><![CDATA[fstambuk]]></author>
                </item>

                
                <item>
                <title><![CDATA[【PRORES HD】Bad Gyal, Anitta - Bota Niña (ProRes 1080)]]></title>
                <link><![CDATA[https://sharemania.us/threads/bad-gyal-anitta-bota-ni%C3%B1a-prores-1080.243051/]]></link>
                <description><![CDATA[<article>
<blockquote class="messageText SelectQuoteContainer ugc baseHtml">
<div style="text-align: center"><img src="https://i.ibb.co/JjZFs6x/Bad-Gyal-Anitta-Bota-Ni-a-VTM-converted.gif" class="bbCodeImage LbImage" alt="[​IMG]" data-url="https://i.ibb.co/JjZFs6x/Bad-Gyal-Anitta-Bota-Ni-a-VTM-converted.gif" style=""><br>
​</div>
<div class="ToggleTriggerAnchor bbCodeSpoilerContainer">
<button type="button" class="button bbCodeSpoilerButton ToggleTrigger Tooltip JsOnly" data-target="> .SpoilerTarget"><span>Spoiler: <span class="SpoilerTitle">ProRes</span></span></button>
<div class="SpoilerTarget bbCodeSpoilerText">
<div class="bbCodeBlock bbCodeCode">
<div class="type">Code:</div>
<pre>General
Complete name                            : Bad Gyal, Anitta - Bota Niña.mp4
Format                                   : MPEG-4
Format profile                           : QuickTime
Codec ID                                 : qt   2005.03 (qt  )
File size                                : 9.87 GiB
Duration                                 : 3 min 35 s
Overall bit rate mode                    : Variable
Overall bit rate                         : 393 Mb/s
Frame rate                               : 24.000 FPS
Encoded date                             : 2024-03-13 09:37:11 UTC
Tagged date                              : 2024-03-12 09:45:41 UTC
Writing library                          : Apple QuickTime
TIM                                      : 00:00:00:00
TSC                                      : 24
TSZ                                      : 1

Video
ID                                       : 1
Format                                   : ProRes
Format version                           : Version 1
Format profile                           : 4444 XQ
Codec ID                                 : ap4x
Duration                                 : 3 min 35 s
Bit rate mode                            : Variable
Bit rate                                 : 391 Mb/s
Width                                    : 1 920 pixels
Height                                   : 1 080 pixels
Display aspect ratio                     : 16:9
Frame rate mode                          : Constant
Frame rate                               : 24.000 FPS
Color space                              : YUV
Chroma subsampling                       : 4:4:4
Scan type                                : Progressive
Bits/(Pixel*Frame)                       : 7.866
Stream size                              : 9.83 GiB (100%)
Writing library                          : Apple
Language                                 : English
Encoded date                             : 2024-03-13 09:37:11 UTC
Tagged date                              : 2024-03-13 09:37:11 UTC
Color primaries                          : BT.709
Transfer characteristics                 : BT.709
Matrix coefficients                      : BT.709
Menus                                    : 0

Audio
ID                                       : 2
Format                                   : PCM
Format settings                          : Little / Signed
Codec ID                                 : sowt
Duration                                 : 3 min 35 s
Bit rate mode                            : Constant
Bit rate                                 : 1 536 kb/s
Channel(s)                               : 2 channels
Channel layout                           : L R
Sampling rate                            : 48.0 kHz
Bit depth                                : 16 bits
Stream size                              : 39.5 MiB (0%)
Language                                 : English
Encoded date                             : 2024-03-13 09:37:11 UTC
Tagged date                              : 2024-03-13 09:37:11 UTC
Menus                                    : 0

Other
ID                                       : 3
Type                                     : Time code
Format                                   : QuickTime TC
Duration                                 : 3 min 35 s
Frame rate                               : 24.000 FPS
Time code of first frame                 : 00:00:00:00
Time code of last frame                  : 00:03:35:15
Time code, stripped                      : Yes
Language                                 : English
Encoded date                             : 2024-03-13 09:37:11 UTC
Tagged date                              : 2024-03-13 09:37:11 UTC

</pre>
</div><div style="text-align: center">​</div></div>
</div><div style="text-align: center"><br>
<div class="bbCodeBlock bbCodeVfcHH HiddenContent">
<div class="attribution type">Hidden Content:</div>
<blockquote>You must reply before you can see the hidden data contained here.</blockquote>
</div></div>
<div class="messageTextEndMarker">&nbsp;</div>
</blockquote>
</article>]]></description>
                <author><![CDATA[fstambuk]]></author>
                </item>

                
                <item>
                <title><![CDATA[【Albums (lossless)】FLAC - Stephen Sanchez - Angel Face (Club Deluxe) [Qobuz Hi-Res 24-Bit/44.1 kHz]]]></title>
                <link><![CDATA[https://sharemania.us/threads/stephen-sanchez-angel-face-club-deluxe-qobuz-hi-res-24-bit-44-1-khz.243052/]]></link>
                <description><![CDATA[<article>
<blockquote class="messageText SelectQuoteContainer ugc baseHtml">
<div style="text-align: center"><img src="https://imgur.com/8ESb4TI.png" class="bbCodeImage LbImage" alt="[​IMG]" data-url="https://imgur.com/8ESb4TI.png" style="">​</div><span style="font-family: 'Book Antiqua'"><i>Tracklist:</i></span><br>
<ol>
<li><div style="text-align: center"><span style="font-family: 'Book Antiqua'">Something About Her</span>​</div></li>
<li><div style="text-align: center"><span style="font-family: 'Book Antiqua'">Evangeline</span>​</div></li>
<li><div style="text-align: center"><span style="font-family: 'Book Antiqua'">I Need You Most Of All</span>​</div></li>
<li><div style="text-align: center"><span style="font-family: 'Book Antiqua'">Only Girl</span>​</div></li>
<li><div style="text-align: center"><span style="font-family: 'Book Antiqua'">Be More</span>​</div></li>
<li><div style="text-align: center"><span style="font-family: 'Book Antiqua'">Until I Found You</span>​</div></li>
<li><div style="text-align: center"><span style="font-family: 'Book Antiqua'">Shake</span>​</div></li>
<li><div style="text-align: center"><span style="font-family: 'Book Antiqua'">High</span>​</div></li>
<li><div style="text-align: center"><span style="font-family: 'Book Antiqua'">Doesn’t Do Me Any Good</span>​</div></li>
<li><div style="text-align: center"><span style="font-family: 'Book Antiqua'">No One Knows (with Laufey)</span>​</div></li>
<li><div style="text-align: center"><span style="font-family: 'Book Antiqua'">Caught In A Blue</span>​</div></li>
<li><div style="text-align: center"><span style="font-family: 'Book Antiqua'">Death Of The Troubadour</span>​</div></li>
<li><div style="text-align: center"><span style="font-family: 'Book Antiqua'">Send My Heart With A Kiss</span>​</div></li>
<li><div style="text-align: center"><span style="font-family: 'Book Antiqua'">Howling at Wolves</span>​</div></li>
<li><div style="text-align: center"><span style="font-family: 'Book Antiqua'">The Other Side</span>​</div></li>
<li><div style="text-align: center"><span style="font-family: 'Book Antiqua'">Emotional Vacation</span>​</div></li>
<li><div style="text-align: center"><span style="font-family: 'Book Antiqua'">Fame or Fortune</span>​</div></li>
<li><div style="text-align: center"><span style="font-family: 'Book Antiqua'">This Thing Called Love</span>​</div></li>
<li><div style="text-align: center"><span style="font-family: 'Book Antiqua'">Until I Found You (with Em Beihold) - Em Beihold Version</span>​</div></li>
</ol><span style="font-family: 'Book Antiqua'"><b>File size:</b><br>
<b>Release date: 26/04/2023</b><br>
<b>1 disc(s) - 19 track(s)</b><br>
<b>Total length: 59 min 21 sec</b><br>
<b>Main artists: </b><a href="https://www.qobuz.com/us-en/interpreter/stephen-sanchez/8401048" target="_blank" class="externalLink" rel="nofollow">Stephen Sanchez</a><br>
<b>Composer: </b><a href="https://www.qobuz.com/us-en/composer/various-composers/573076" target="_blank" class="externalLink" rel="nofollow">Various Composers</a><br>
<b>Label: </b><a href="https://www.qobuz.com/us-en/label/mercury-records-republic-records-1/download-streaming-albums/3298398" target="_blank" class="externalLink" rel="nofollow">Mercury Records - Republic Records</a><br>
<b>Genre: </b>Singer &amp; Songwriter<br>
© 2024 Stephen Sanchez, under exclusive license to Mercury Records/Republic Records, a division of UMG Recordings, Inc. <br>
℗ 2024 Stephen Sanchez, under exclusive license to Mercury Records/Republic Records, a division of UMG Recordings, Inc.<br>
<br>
<b>Download:</b><br>
<div class="bbCodeBlock bbCodeVfcHH HiddenContent">
<div class="attribution type">Hidden Content:</div>
<blockquote>You must either reply or click 'Like' to see the hidden information contained here.</blockquote>
</div>
<div class="bbCodeBlock bbCodeVfcHH HiddenContent">
<div class="attribution type">Hidden Content:</div>
<blockquote>You must either reply or click 'Like' to see the hidden information contained here.</blockquote>
</div></span>
<div class="bbCodeBlock bbCodeVfcHH HiddenContent">
<div class="attribution type">Hidden Content:</div>
<blockquote>You must either reply or click 'Like' to see the hidden information contained here.</blockquote>
</div><span style="font-family: 'Book Antiqua'">
<div class="bbCodeBlock bbCodeVfcHH HiddenContent">
<div class="attribution type">Hidden Content:</div>
<blockquote>You must either reply or click 'Like' to see the hidden information contained here.</blockquote>
</div></span>
<div class="bbCodeBlock bbCodeVfcHH HiddenContent">
<div class="attribution type">Hidden Content:</div>
<blockquote>You must either reply or click 'Like' to see the hidden information contained here.</blockquote>
</div>
<div class="messageTextEndMarker">&nbsp;</div>
</blockquote>
</article>]]></description>
                <author><![CDATA[phantomswiftx]]></author>
                </item>

                </channel></rss>